<svg width="32" height="32" viewBox="0 0 32 32" fill="none" xmlns="http://www.w3.org/2000/svg">
<path d="M4.81147 10.4444C4.95133 10.4444 5.07664 10.53 5.12699 10.6596L5.74236 12.2484C5.79572 12.3858 5.87744 12.5106 5.98226 12.6148C6.08709 12.719 6.2127 12.8002 6.35102 12.8533L7.95137 13.4644C8.01521 13.4887 8.07013 13.5316 8.10887 13.5876C8.14761 13.6435 8.16835 13.7098 8.16835 13.7777C8.16835 13.8456 8.14761 13.9119 8.10887 13.9678C8.07013 14.0238 8.01521 14.0667 7.95137 14.091L6.3514 14.7021C6.21292 14.7549 6.08715 14.836 5.98224 14.9401C5.87732 15.0442 5.7956 15.1691 5.74236 15.3066L5.12699 16.8958C5.10252 16.9592 5.05926 17.0137 5.00293 17.0522C4.9466 17.0907 4.87984 17.1113 4.81147 17.1113C4.7431 17.1113 4.67634 17.0907 4.62001 17.0522C4.56367 17.0137 4.52041 16.9592 4.49595 16.8958L3.88057 15.3069C3.82742 15.1694 3.74577 15.0445 3.64092 14.9403C3.53607 14.8361 3.41036 14.755 3.27191 14.7021L1.67157 14.091C1.60773 14.0667 1.55281 14.0238 1.51407 13.9678C1.47533 13.9119 1.45459 13.8456 1.45459 13.7777C1.45459 13.7098 1.47533 13.6435 1.51407 13.5876C1.55281 13.5316 1.60773 13.4887 1.67157 13.4644L3.27154 12.8533C3.41001 12.8005 3.53578 12.7194 3.6407 12.6153C3.74561 12.5111 3.82733 12.3863 3.88057 12.2488L4.49595 10.6596C4.52064 10.5964 4.56396 10.542 4.62025 10.5036C4.67654 10.4652 4.74318 10.4446 4.81147 10.4444Z" stroke="#EAE9E9" stroke-linecap="round" stroke-linejoin="round"/>
<path d="M22.9202 17.2665L29.2351 14.8199C31.0533 14.1155 30.9559 11.5288 29.0897 10.9611L13.0687 6.09224C11.4911 5.61336 10.0142 7.07889 10.4975 8.64554L15.4004 24.5542C15.971 26.4075 18.5779 26.5042 19.2862 24.6987L21.7499 18.4276C21.8534 18.1644 22.0107 17.9252 22.212 17.7254C22.4132 17.5255 22.654 17.3693 22.9191 17.2665" stroke="#EAE9E9" stroke-linecap="round" stroke-linejoin="round"/>
</svg>
