<svg width="32" height="32" viewBox="0 0 32 32" fill="none" xmlns="http://www.w3.org/2000/svg">
<path d="M16.0479 18.8299L22.632 16.2609C24.5277 15.5212 24.4262 12.8053 22.4803 12.2091L5.77626 7.09685C4.1314 6.59403 2.59153 8.13284 3.09548 9.77782L8.20738 26.4819C8.80233 28.4279 11.5204 28.5294 12.2589 26.6336L14.8277 20.049C14.9356 19.7726 15.0996 19.5215 15.3094 19.3117C15.5192 19.1018 15.7703 18.9378 16.0467 18.8299" stroke="#EAE9E9" stroke-width="2" stroke-linecap="round" stroke-linejoin="round"/>
<path d="M21.0479 17.8299L27.632 15.2609C29.5277 14.5212 29.4262 11.8053 27.4803 11.2091L10.7763 6.09685C9.1314 5.59403 7.59153 7.13284 8.09548 8.77782L13.2074 25.4819C13.8023 27.4279 16.5204 27.5294 17.2589 25.6336L19.8277 19.049C19.9356 18.7726 20.0996 18.5215 20.3094 18.3117C20.5192 18.1018 20.7703 17.9378 21.0467 17.8299" fill="#2A2828"/>
<path d="M21.0479 17.8299L27.632 15.2609C29.5277 14.5212 29.4262 11.8053 27.4803 11.2091L10.7763 6.09685C9.1314 5.59403 7.59153 7.13284 8.09548 8.77782L13.2074 25.4819C13.8023 27.4279 16.5204 27.5294 17.2589 25.6336L19.8277 19.049C19.9356 18.7726 20.0996 18.5215 20.3094 18.3117C20.5192 18.1018 20.7703 17.9378 21.0467 17.8299" stroke="#EAE9E9" stroke-width="2" stroke-linecap="round" stroke-linejoin="round"/>
</svg>
